<svg xmlns="http://www.w3.org/2000/svg" viewBox="0 0 704 137.6"><defs><style>.cls-1{fill:#184173;}.cls-2{fill:#fff;}.cls-3{fill:#f1c53c;}</style></defs><g id="Layer_2" data-name="Layer 2"><g id="Layer_1-2" data-name="Layer 1"><rect class="cls-1" width="137.6" height="137.6" rx="37.15"/><path class="cls-2" d="M112.45,110.64H42.33A17.67,17.67,0,0,1,24.66,93V48.55A21.59,21.59,0,0,1,46.24,27H77.43a1.12,1.12,0,0,1,1.12,1.12V44.51a.88.88,0,0,1-.88.89H44.3A2.27,2.27,0,0,0,42,47.67V88.19a4,4,0,0,0,4,4H101.9a1.22,1.22,0,0,1,1.08.65Z"/><path class="cls-2" d="M113,45.4V72a6,6,0,0,1-6,6H53.28a.11.11,0,0,1-.09-.15l8.27-17.8a.84.84,0,0,1,.76-.49H93.28a1.23,1.23,0,0,0,1.23-1.22V27h0A18.45,18.45,0,0,1,113,45.4Z"/><path class="cls-3" d="M178.69,68.72c0,11.8,9.14,21.1,20.27,21.1a25.91,25.91,0,0,0,14.29-4l10,20.44s-9.64,7.64-28.58,7.64c-24.59,0-47.18-19.93-47.18-44.86s22.42-45.36,47.18-45.36c18.94,0,28.58,8,28.58,8l-10,20.1a26,26,0,0,0-14.29-4C187.83,47.79,178.69,57.09,178.69,68.72Z"/><path class="cls-3" d="M270.56,23.69c11.47,0,20.94,3.83,27.91,10.64V26.19h29.41v85.23H298.81v-9.64h-.34a37.73,37.73,0,0,1-27.91,12.13c-24.92,0-42.36-20.1-42.36-45S245.64,23.69,270.56,23.69Zm8.81,65.13c11.46,0,19.77-8.3,19.77-19.93,0-11.8-8.81-20.11-19.77-20.11-11.13,0-19.94,8.31-19.94,20.11C259.43,80.52,267.41,88.82,279.37,88.82Z"/><path class="cls-3" d="M347.81,26.19h29.41V38.48h.33s9.3-14.79,26.09-14.79A35.27,35.27,0,0,1,422.24,29L410,53.93s-5.48-4.65-15.29-4.65c-15.28,0-17.44,15.12-17.44,17.28v44.86H347.81Z"/><path class="cls-3" d="M454,72.87c0,13.13,11,17.61,18.44,17.61,9.47,0,13.62-1.82,20.77-9.47l21.26,10.64c-9.63,16.12-25.25,22.26-44.19,22.26-25.75,0-46.85-20.27-46.85-45,0-24.92,21.1-45.2,46.85-45.2,25.92,0,45.69,15.29,45.69,45.2a29.87,29.87,0,0,1-.17,4ZM487.2,56.59c-1.33-9-7.48-13.79-16.12-13.79-10.13,0-15.78,6-16.28,13.79Z"/><path class="cls-1" d="M554.15,72.87c0,13.13,11,17.61,18.44,17.61,9.47,0,13.62-1.82,20.77-9.47l21.26,10.64c-9.63,16.12-25.25,22.26-44.19,22.26-25.75,0-46.85-20.27-46.85-45,0-24.92,21.1-45.2,46.85-45.2,25.92,0,45.69,15.29,45.69,45.2a29.87,29.87,0,0,1-.17,4Zm33.23-16.28c-1.33-9-7.48-13.79-16.12-13.79-10.14,0-15.78,6-16.28,13.79Z"/><path class="cls-1" d="M629.57,26.19H659V38.48h.34s9.3-14.79,26.08-14.79A35.29,35.29,0,0,1,704,29L691.71,53.93s-5.49-4.65-15.29-4.65C661.13,49.28,659,64.4,659,66.56v44.86h-29.4Z"/></g></g></svg>